<?xml version="1.0" encoding="utf-8"?>
<!-- Generator: Adobe Illustrator 16.0.4, SVG Export Plug-In . SVG Version: 6.00 Build 0)  -->
<!DOCTYPE svg PUBLIC "-//W3C//DTD SVG 1.1//EN" "http://www.w3.org/Graphics/SVG/1.1/DTD/svg11.dtd">
<svg version="1.1" id="Layer_1" xmlns="http://www.w3.org/2000/svg" xmlns:xlink="http://www.w3.org/1999/xlink" x="0px" y="0px"
	 width="495px" height="450px" viewBox="-235.5 -213 495 450" enable-background="new -235.5 -213 495 450" xml:space="preserve">
<g id="Icons" opacity="0.75">
	<path id="search-big" d="M99.662,81.494l-46.22-46.205c-0.965-0.964-2.129-1.628-3.419-2.003
		C58.213,21.791,63.072,7.748,63.072-7.459c0-38.942-31.582-70.521-70.527-70.521c-38.946,0-70.527,31.58-70.527,70.521
		s31.582,70.522,70.527,70.522c15.208,0,29.253-4.858,40.773-13.048c0.363,1.29,1.027,2.441,1.991,3.418L81.53,99.65
		c3.856,3.856,10.994,2.904,16.004-2.129C102.556,92.513,103.494,85.363,99.662,81.494z M-7.455,37.418
		c-24.776,0-44.881-20.104-44.881-44.877s20.105-44.877,44.881-44.877S37.426-32.233,37.426-7.459S17.321,37.418-7.455,37.418z"/>
</g>
<g id="Guides">
</g>
</svg>
